<?xml version="1.0" encoding="UTF-8" standalone="no"?>
<svg
   xmlns:dc="http://purl.org/dc/elements/1.1/"
   xmlns:cc="http://creativecommons.org/ns#"
   xmlns:rdf="http://www.w3.org/1999/02/22-rdf-syntax-ns#"
   xmlns:svg="http://www.w3.org/2000/svg"
   xmlns="http://www.w3.org/2000/svg"
   xmlns:sodipodi="http://sodipodi.sourceforge.net/DTD/sodipodi-0.dtd"
   xmlns:inkscape="http://www.inkscape.org/namespaces/inkscape"
   viewBox="0 0 869.4292 189.59909"
   class="h-16 w-auto text-gray-700 sm:h-20"
   version="1.1"
   id="svg841"
   sodipodi:docname="logo.svg"
   width="869.4292"
   height="189.59909"
   style="fill:none"
   inkscape:version="0.92.3 (2405546, 2018-03-11)">
  <metadata
     id="metadata847">
    <rdf:RDF>
      <cc:Work
         rdf:about="">
        <dc:format>image/svg+xml</dc:format>
        <dc:type
           rdf:resource="http://purl.org/dc/dcmitype/StillImage" />
        <dc:title></dc:title>
      </cc:Work>
    </rdf:RDF>
  </metadata>
  <defs
     id="defs845" />
  <sodipodi:namedview
     pagecolor="#ffffff"
     bordercolor="#666666"
     borderopacity="1"
     objecttolerance="10"
     gridtolerance="10"
     guidetolerance="10"
     inkscape:pageopacity="0"
     inkscape:pageshadow="2"
     inkscape:window-width="1600"
     inkscape:window-height="837"
     id="namedview843"
     showgrid="false"
     showguides="true"
     inkscape:guide-bbox="true"
     fit-margin-top="0"
     fit-margin-left="0"
     fit-margin-right="0"
     fit-margin-bottom="0"
     inkscape:zoom="0.96453275"
     inkscape:cx="437.00495"
     inkscape:cy="62.764406"
     inkscape:window-x="-8"
     inkscape:window-y="-8"
     inkscape:window-maximized="1"
     inkscape:current-layer="g839">
    <sodipodi:guide
       position="463.954,45.69207"
       orientation="0,1"
       id="guide4560"
       inkscape:locked="false" />
  </sodipodi:namedview>
  <g
     clip-path="url(#clip0)"
     id="g839"
     style="fill:#ef3b2d"
     transform="translate(0,-0.99997903)">
    <path
       style="fill:#ef3b2d;fill-opacity:1"
       inkscape:connector-curvature="0"
       d="m 248.032,44.676 h -16.466 v 100.23 h 47.394 v -14.748 h -30.928 z m 89.059,42.526 c -2.101,-3.341 -5.083,-5.965 -8.949,-7.875 -3.865,-1.909 -7.756,-2.864 -11.669,-2.864 -5.062,0 -9.69,0.931 -13.89,2.792 -4.201,1.861 -7.804,4.417 -10.811,7.661 -3.007,3.246 -5.347,6.993 -7.016,11.239 -1.672,4.249 -2.506,8.713 -2.506,13.389 0,4.774 0.834,9.26 2.506,13.459 1.669,4.202 4.009,7.925 7.016,11.169 3.007,3.246 6.609,5.799 10.811,7.66 4.199,1.861 8.828,2.792 13.89,2.792 3.913,0 7.804,-0.955 11.669,-2.863 3.866,-1.908 6.849,-4.533 8.949,-7.875 v 9.021 h 15.607 V 78.182 h -15.607 z m -1.431,32.503 c -0.955,2.578 -2.291,4.821 -4.009,6.73 -1.719,1.91 -3.795,3.437 -6.229,4.582 -2.435,1.146 -5.133,1.718 -8.091,1.718 -2.96,0 -5.633,-0.572 -8.019,-1.718 -2.387,-1.146 -4.438,-2.672 -6.156,-4.582 -1.719,-1.909 -3.032,-4.152 -3.938,-6.73 -0.909,-2.577 -1.36,-5.298 -1.36,-8.161 0,-2.864 0.451,-5.585 1.36,-8.162 0.905,-2.577 2.219,-4.819 3.938,-6.729 1.718,-1.908 3.77,-3.437 6.156,-4.582 2.386,-1.146 5.059,-1.718 8.019,-1.718 2.958,0 5.656,0.572 8.091,1.718 2.434,1.146 4.51,2.674 6.229,4.582 1.718,1.91 3.054,4.152 4.009,6.729 0.953,2.577 1.432,5.298 1.432,8.162 -10e-4,2.863 -0.479,5.584 -1.432,8.161 z M 463.954,87.202 c -2.101,-3.341 -5.083,-5.965 -8.949,-7.875 -3.865,-1.909 -7.756,-2.864 -11.669,-2.864 -5.062,0 -9.69,0.931 -13.89,2.792 -4.201,1.861 -7.804,4.417 -10.811,7.661 -3.007,3.246 -5.347,6.993 -7.016,11.239 -1.672,4.249 -2.506,8.713 -2.506,13.389 0,4.774 0.834,9.26 2.506,13.459 1.669,4.202 4.009,7.925 7.016,11.169 3.007,3.246 6.609,5.799 10.811,7.66 4.199,1.861 8.828,2.792 13.89,2.792 3.913,0 7.804,-0.955 11.669,-2.863 3.866,-1.908 6.849,-4.533 8.949,-7.875 v 9.021 h 15.607 V 78.182 h -15.607 z m -1.432,32.503 c -0.955,2.578 -2.291,4.821 -4.009,6.73 -1.719,1.91 -3.795,3.437 -6.229,4.582 -2.435,1.146 -5.133,1.718 -8.091,1.718 -2.96,0 -5.633,-0.572 -8.019,-1.718 -2.387,-1.146 -4.438,-2.672 -6.156,-4.582 -1.719,-1.909 -3.032,-4.152 -3.938,-6.73 -0.909,-2.577 -1.36,-5.298 -1.36,-8.161 0,-2.864 0.451,-5.585 1.36,-8.162 0.905,-2.577 2.219,-4.819 3.938,-6.729 1.718,-1.908 3.77,-3.437 6.156,-4.582 2.386,-1.146 5.059,-1.718 8.019,-1.718 2.958,0 5.656,0.572 8.091,1.718 2.434,1.146 4.51,2.674 6.229,4.582 1.718,1.91 3.054,4.152 4.009,6.729 0.953,2.577 1.432,5.298 1.432,8.162 0,2.863 -0.479,5.584 -1.432,8.161 z m 188.25,-75.029 h -15.606 v 100.23 h 15.606 z M 365.013,144.906 H 380.62 V 93.538 h 26.776 V 78.182 h -42.383 z m 177.12,-66.724 -19.616,51.096 -19.616,-51.096 h -15.808 l 25.617,66.724 h 19.614 l 25.617,-66.724 z m 49.847,-1.716 c -19.112,0 -34.239,15.706 -34.239,35.079 0,21.416 14.641,35.079 36.239,35.079 12.088,0 19.806,-4.622 29.234,-14.688 l -10.544,-8.158 c -0.006,0.008 -7.958,10.449 -19.832,10.449 -13.802,0 -19.612,-11.127 -19.612,-16.884 h 51.777 C 627.723,95.3 613.231,76.466 591.98,76.466 Z m -18.713,29.28 c 0.12,-1.284 1.917,-16.884 18.589,-16.884 16.671,0 18.697,15.598 18.813,16.884 z M 184.068,43.892 c -0.024,-0.088 -0.073,-0.165 -0.104,-0.25 -0.058,-0.157 -0.108,-0.316 -0.191,-0.46 -0.056,-0.097 -0.137,-0.176 -0.203,-0.265 -0.087,-0.117 -0.161,-0.242 -0.265,-0.345 -0.085,-0.086 -0.194,-0.148 -0.29,-0.223 -0.109,-0.085 -0.206,-0.182 -0.327,-0.252 l -0.002,-0.001 -0.002,-0.002 -35.648,-20.524 a 2.971,2.971 0 0 0 -2.964,0 l -35.647,20.522 -0.002,0.002 -0.002,10e-4 c -0.121,0.07 -0.219,0.167 -0.327,0.252 -0.096,0.075 -0.205,0.138 -0.29,0.223 -0.103,0.103 -0.178,0.228 -0.265,0.345 -0.066,0.089 -0.147,0.169 -0.203,0.265 -0.083,0.144 -0.133,0.304 -0.191,0.46 -0.031,0.085 -0.08,0.162 -0.104,0.25 -0.067,0.249 -0.103,0.51 -0.103,0.776 V 83.645 L 77.232,100.748 V 24.493 A 3,3 0 0 0 77.129,23.717 C 77.105,23.629 77.056,23.552 77.025,23.467 76.967,23.31 76.917,23.151 76.834,23.007 76.778,22.91 76.697,22.831 76.631,22.742 76.544,22.625 76.47,22.5 76.366,22.397 76.281,22.311 76.172,22.249 76.076,22.174 75.967,22.089 75.87,21.992 75.749,21.922 L 75.747,21.921 75.745,21.919 40.098,1.396 a 2.971,2.971 0 0 0 -2.964,0 L 1.487,21.919 1.485,21.921 1.483,21.922 C 1.362,21.992 1.264,22.089 1.156,22.174 1.06,22.249 0.951,22.312 0.866,22.397 0.763,22.5 0.688,22.625 0.601,22.742 0.535,22.831 0.454,22.911 0.398,23.007 0.315,23.151 0.265,23.311 0.207,23.467 0.176,23.552 0.127,23.629 0.103,23.717 0.036,23.966 0,24.227 0,24.493 v 122.09 c 0,1.063 0.568,2.044 1.489,2.575 l 71.293,41.045 c 0.156,0.089 0.324,0.143 0.49,0.202 0.078,0.028 0.15,0.074 0.23,0.095 a 2.98,2.98 0 0 0 1.524,0 c 0.069,-0.018 0.132,-0.059 0.2,-0.083 0.176,-0.061 0.354,-0.119 0.519,-0.214 l 71.293,-41.045 a 2.971,2.971 0 0 0 1.489,-2.575 v -38.979 l 34.158,-19.666 a 2.971,2.971 0 0 0 1.489,-2.575 V 44.666 a 3.075,3.075 0 0 0 -0.106,-0.774 z m -109.813,99.275 -29.648,-16.779 31.136,-17.926 0.001,-0.001 34.164,-19.669 29.674,17.084 -21.772,12.428 z m 68.329,-76.259 v 33.841 l -12.475,-7.182 -17.231,-9.92 V 49.806 l 12.475,7.182 z m 2.97,-39.335 29.693,17.095 -29.693,17.095 -29.693,-17.095 z M 54.06,114.089 41.585,121.271 V 46.733 l 17.231,-9.92 12.475,-7.182 v 74.537 z M 38.614,7.398 68.307,24.493 38.614,41.588 8.921,24.493 Z m -32.676,22.234 12.475,7.182 17.231,9.92 v 79.676 l 0.001,0.005 -0.001,0.006 c 0,0.114 0.032,0.221 0.045,0.333 0.017,0.146 0.021,0.294 0.059,0.434 l 0.002,0.007 c 0.032,0.117 0.094,0.222 0.14,0.334 0.051,0.124 0.088,0.255 0.156,0.371 a 0.036,0.036 0 0 0 0.004,0.009 c 0.061,0.105 0.149,0.191 0.222,0.288 0.081,0.105 0.149,0.22 0.244,0.314 l 0.008,0.01 c 0.084,0.083 0.19,0.142 0.284,0.215 0.106,0.083 0.202,0.178 0.32,0.247 l 0.013,0.005 0.011,0.008 34.139,19.321 v 34.175 L 5.939,144.867 V 29.632 Z M 142.584,144.867 77.232,182.492 V 148.31 l 48.399,-27.628 16.953,-9.677 z m 35.646,-61.22 -29.706,17.102 V 66.908 l 17.231,-9.92 12.475,-7.182 z"
       id="path837" />
    <g
       aria-label="Docker"
       transform="matrix(1.6125115,0,0,1.8514586,-415.82119,1.6978858)"
       style="font-style:normal;font-weight:normal;font-size:40px;line-height:1.25;font-family:sans-serif;letter-spacing:0px;word-spacing:0px;fill:#ef3b2d;fill-opacity:1;stroke:none"
       id="flowRoot4552">
      <path
         d="m 699.49023,63.879931 q 0,5.546875 -3.55468,9.6875 -3.55469,4.140625 -9.96094,4.140625 -2.89063,0 -7.96875,-0.234375 0.25391,-5.898437 0.25391,-13.300781 0,-7.109375 -0.25391,-12.128906 h 3.41797 q 0.83984,0 2.5,-0.05859 1.66015,-0.05859 2.16797,-0.05859 7.05078,0 10.21484,3.515625 3.18359,3.515625 3.18359,8.4375 z m -5.33203,0.839844 q 0,-3.75 -2.1875,-6.308594 -2.1875,-2.578125 -6.67968,-2.578125 -0.83985,0 -2.30469,0.175782 0.19531,3.90625 0.19531,8.164062 0,4.667969 0.19531,9.257813 1.26953,0.253906 2.53907,0.253906 4.19921,0 6.21093,-2.597656 2.03125,-2.617188 2.03125,-6.367188 z"
         style="font-style:normal;font-variant:normal;font-weight:bold;font-stretch:normal;font-family:Candara;-inkscape-font-specification:'Candara Bold';fill:#ef3b2d;fill-opacity:1"
         id="path4574" />
      <path
         d="m 721.9707,67.76665 q 0,4.921875 -3.02734,7.695313 -3.02734,2.773437 -7.12891,2.773437 -3.90625,0 -6.69922,-2.519531 -2.79296,-2.539063 -2.79296,-7.128906 0,-4.941407 3.04687,-7.734375 3.04688,-2.792969 7.14844,-2.792969 3.88672,0 6.66015,2.558594 2.79297,2.539062 2.79297,7.148437 z m -5.09765,0.585938 q 0,-2.832032 -1.32813,-4.746094 -1.32812,-1.933594 -3.45703,-1.933594 -2.07031,0 -3.37891,1.796875 -1.28906,1.796875 -1.28906,4.492188 0,2.832031 1.32813,4.765625 1.32812,1.914062 3.45703,1.914062 2.07031,0 3.35937,-1.796875 1.3086,-1.796875 1.3086,-4.492187 z"
         style="font-style:normal;font-variant:normal;font-weight:bold;font-stretch:normal;font-family:Candara;-inkscape-font-specification:'Candara Bold';fill:#ef3b2d;fill-opacity:1"
         id="path4576" />
      <path
         d="m 740.27148,73.372119 -0.33203,3.730469 q -1.77734,0.9375 -4.82422,0.9375 -5.03906,0 -7.7539,-2.8125 -2.69531,-2.8125 -2.69531,-6.757813 0,-4.101562 2.83203,-7.148437 2.83203,-3.066407 7.7539,-3.066407 2.40235,0 4.27735,0.546875 l -0.66407,3.984375 q -1.79687,-0.742187 -4.02343,-0.742187 -2.36328,0 -3.73047,1.679687 -1.36719,1.660157 -1.36719,4.101563 0,2.65625 1.62109,4.492187 1.6211,1.835938 4.58985,1.835938 1.73828,0 4.3164,-0.78125 z"
         style="font-style:normal;font-variant:normal;font-weight:bold;font-stretch:normal;font-family:Candara;-inkscape-font-specification:'Candara Bold';fill:#ef3b2d;fill-opacity:1"
         id="path4578" />
      <path
         d="m 761.22852,77.473681 h -5.97657 q 0,-0.722656 -2.96875,-4.882812 -2.96875,-4.179688 -3.78906,-4.179688 h -0.25391 q 0,4.003907 0.23438,9.0625 h -5.17578 q 0.23437,-9.121093 0.23437,-14.511718 0,-7.460938 -0.60547,-12.949219 l 5.54688,-0.3125 q -0.27344,7.421875 -0.27344,13.261719 0,0.742187 0.0195,2.890625 h 0.27344 q 0.54688,0 3.10547,-3.144532 2.55859,-3.164062 2.55859,-3.789062 h 5.82032 q 0,0.605469 -2.65625,3.378906 -2.65625,2.773438 -4.29688,3.828125 v 0.292969 q 1.81641,1.269531 5,5.78125 3.20313,4.492187 3.20313,5.273437 z"
         style="font-style:normal;font-variant:normal;font-weight:bold;font-stretch:normal;font-family:Candara;-inkscape-font-specification:'Candara Bold';fill:#ef3b2d;fill-opacity:1"
         id="path4580" />
      <path
         d="m 780.66211,66.20415 q 0,0.996094 -0.11719,2.597656 L 767.9668,69.01665 q 0.27343,2.207031 1.89453,3.671875 1.62109,1.464844 4.25781,1.464844 2.92969,0 6.23047,-0.878906 l -0.39063,3.789062 q -2.69531,0.976563 -6.67968,0.976563 -5.03907,0 -7.73438,-2.832032 -2.67578,-2.832031 -2.67578,-6.816406 0,-4.160156 2.53906,-7.207031 2.5586,-3.066406 7.08985,-3.066406 4.14062,0 6.15234,2.246093 2.01172,2.246094 2.01172,5.839844 z m -4.57031,-0.175781 q 0,-4.492188 -3.82813,-4.492188 -3.65234,0 -4.33594,4.648438 z"
         style="font-style:normal;font-variant:normal;font-weight:bold;font-stretch:normal;font-family:Candara;-inkscape-font-specification:'Candara Bold';fill:#ef3b2d;fill-opacity:1"
         id="path4582" />
      <path
         d="m 797.04883,58.918994 -1.13281,4.570312 q -1.44532,-0.585937 -2.92969,-0.585937 -2.8711,0 -3.78906,2.578125 0,7.792969 0.11718,11.992187 h -5.19531 q 0.33203,-5.878906 0.33203,-9.609375 0,-4.648437 -0.97656,-8.808593 l 4.98047,-0.546875 q 0.33203,2.148437 0.33203,2.519531 h 0.3125 q 1.79687,-2.753906 4.78516,-2.753906 1.40625,0 3.16406,0.644531 z"
         style="font-style:normal;font-variant:normal;font-weight:bold;font-stretch:normal;font-family:Candara;-inkscape-font-specification:'Candara Bold';fill:#ef3b2d;fill-opacity:1"
         id="path4584" />
    </g>
  </g>
</svg>
